
<svg width="512" height="512" viewBox="0 0 24 24" fill="none" xmlns="http://www.w3.org/2000/svg">
  <path d="M12 2L3 5V11C3 16.52 7.03 21.54 12 23C16.97 21.54 21 16.52 21 11V5L12 2Z" fill="#2563EB"/>
  <g filter="url(#filter0_d_94_2)">
    <path d="M12 17.5C13.3807 17.5 14.5 16.3807 14.5 15C14.5 13.6193 13.3807 12.5 12 12.5C10.6193 12.5 9.5 13.6193 9.5 15C9.5 16.3807 10.6193 17.5 12 17.5Z" fill="white"/>
    <path d="M15 11.5V9.5C15 8.11929 13.6569 7 12 7C10.3431 7 9 8.11929 9 9.5V11.5H15Z" fill="white"/>
  </g>
  <defs>
    <filter id="filter0_d_94_2" x="5" y="5" width="14" height="16.5" filterUnits="userSpaceOnUse" color-interpolation-filters="sRGB">
      <feFlood flood-opacity="0" result="BackgroundImageFix"/>
      <feColorMatrix in="SourceAlpha" type="matrix" values="0 0 0 0 0 0 0 0 0 0 0 0 0 0 0 0 0 0 127 0" result="hardAlpha"/>
      <feOffset dy="2"/>
      <feGaussianBlur stdDeviation="1"/>
      <feComposite in2="hardAlpha" operator="out"/>
      <feColorMatrix type="matrix" values="0 0 0 0 0 0 0 0 0 0 0 0 0 0 0 0 0 0 0.25 0"/>
      <feBlend mode="normal" in2="BackgroundImageFix" result="effect1_dropShadow_94_2"/>
      <feBlend mode="normal" in="SourceGraphic" in2="effect1_dropShadow_94_2" result="shape"/>
    </filter>
  </defs>
</svg>
